<svg width="44" height="6" viewBox="0 0 44 6" fill="none" xmlns="http://www.w3.org/2000/svg">
<path d="M43.1299 2.544H42.3139V3.396H41.4619V5.976H39.7219V3.444H38.8699V2.58H38.0059V0H39.6979V2.544H41.4019V0H43.1299V2.544Z" fill="white"/>
<path d="M36.9643 0.828H32.7043V2.52H36.1123V3.396H32.7283V5.976H30.9883V0H36.9643V0.828Z" fill="white"/>
<path d="M30.1142 5.976H24.9902V5.136H26.6822V0.876H24.9902V0H30.1142V0.828H28.4222V5.1H30.1142V5.976Z" fill="white"/>
<path d="M24.4848 5.976H19.3608V0H21.0528V5.1H24.4848V5.976Z" fill="white"/>
<path d="M19.1713 5.976H17.4793V4.272H14.9353V5.976H13.1953V1.704H14.0113V0.852H14.8753V0H17.4553V0.816H18.3193V1.668H19.1713V5.976ZM17.4553 3.396V1.668H16.6033V0.852H15.7273V1.716H14.9113V3.396H17.4553Z" fill="white"/>
<path d="M12.5737 5.112H11.7577V5.976H7.46166V5.16H6.59766V0H8.28966V5.112H10.8457V0H12.5737V5.112Z" fill="white"/>
<path d="M5.976 4.26H5.148V5.1H5.976V5.976H5.148V5.136H4.308V5.976H0.864V5.16H0V0.852H0.816V0H5.124V0.816H5.976V4.26ZM4.26 3.396V0.852H1.716V5.112H3.408V4.236H2.568V3.396H4.26Z" fill="#FF5D00"/>
</svg>
